<?xml version="1.0" encoding="utf-8"?>
<!-- Generator: Adobe Illustrator 16.0.0, SVG Export Plug-In . SVG Version: 6.00 Build 0)  -->
<!DOCTYPE svg PUBLIC "-//W3C//DTD SVG 1.1//EN" "http://www.w3.org/Graphics/SVG/1.1/DTD/svg11.dtd">
<svg version="1.1" id="Layer_1" xmlns="http://www.w3.org/2000/svg" xmlns:xlink="http://www.w3.org/1999/xlink" x="0px" y="0px"
	 width="23px" height="23px" viewBox="0 0 32 32" enable-background="new 0 0 32 32" xml:space="preserve">
<path id="star" fill="#ffffff" d="M27.87,7.863L23.024,4.82l-7.889,12.566l4.842,3.04L27.87,7.863zM14.395,21.25l-0.107,2.855l2.527-1.337l2.349-1.24l-4.672-2.936L14.395,21.25zM29.163,3.239l-2.532-1.591c-0.638-0.401-1.479-0.208-1.882,0.43l-0.998,1.588l4.842,3.042l0.999-1.586C29.992,4.481,29.802,3.639,29.163,3.239zM25.198,27.062c0,0.275-0.225,0.5-0.5,0.5h-19c-0.276,0-0.5-0.225-0.5-0.5v-19c0-0.276,0.224-0.5,0.5-0.5h13.244l1.884-3H5.698c-1.93,0-3.5,1.57-3.5,3.5v19c0,1.93,1.57,3.5,3.5,3.5h19c1.93,0,3.5-1.57,3.5-3.5V11.097l-3,4.776V27.062z"/>
</svg>
