<?xml version="1.0" encoding="utf-8"?>
<!-- Generator: Adobe Illustrator 16.0.0, SVG Export Plug-In . SVG Version: 6.00 Build 0)  -->
<!DOCTYPE svg PUBLIC "-//W3C//DTD SVG 1.1//EN" "http://www.w3.org/Graphics/SVG/1.1/DTD/svg11.dtd">
<svg version="1.1" id="Layer_1" xmlns="http://www.w3.org/2000/svg" xmlns:xlink="http://www.w3.org/1999/xlink" x="0px" y="0px"
	 width="23px" height="23px" viewBox="0 0 32 32" enable-background="new 0 0 32 32" xml:space="preserve">
<path id="star" fill="#fea500" d="M14.615,4.928c0.487-0.986,1.284-0.986,1.771,0l2.249,4.554c0.486,0.986,1.775,1.923,2.864,2.081l5.024,0.73c1.089,0.158,1.335,0.916,0.547,1.684l-3.636,3.544c-0.788,0.769-1.28,2.283-1.095,3.368l0.859,5.004c0.186,1.085-0.459,1.553-1.433,1.041l-4.495-2.363c-0.974-0.512-2.567-0.512-3.541,0l-4.495,2.363c-0.974,0.512-1.618,0.044-1.432-1.041l0.858-5.004c0.186-1.085-0.307-2.6-1.094-3.368L3.93,13.977c-0.788-0.768-0.542-1.525,0.547-1.684l5.026-0.73c1.088-0.158,2.377-1.095,2.864-2.081L14.615,4.928z" stroke="#5f302c" stroke-width="2"/>
</svg>
